0
SECTION
2
HEADER
9
$INSUNITS
70
4
9
$ACADVER
1
AC1014
9
$HANDSEED
5
FFFF
0
ENDSEC
0
SECTION
2
TABLES
0
TABLE
2
VPORT
5
8
100
AcDbSymbolTable
0
ENDTAB
0
TABLE
2
LTYPE
5
5
100
AcDbSymbolTable
0
LTYPE
5
14
100
AcDbSymbolTableRecord
100
AcDbLinetypeTableRecord
2
BYBLOCK
70
0
0
LTYPE
5
15
100
AcDbSymbolTableRecord
100
AcDbLinetypeTableRecord
2
BYLAYER
70
0
0
ENDTAB
0
TABLE
2
LAYER
5
2
100
AcDbSymbolTable
70
2
0
LAYER
5
50
100
AcDbSymbolTableRecord
100
AcDbLayerTableRecord
2
0
70
0
6
CONTINUOUS
0
ENDTAB
0
TABLE
2
STYLE
5
3
100
AcDbSymbolTable
70
1
0
STYLE
5
11
100
AcDbSymbolTableRecord
100
AcDbTextStyleTableRecord
2
STANDARD
70
0
0
ENDTAB
0
TABLE
2
VIEW
5
6
100
AcDbSymbolTable
70
0
0
ENDTAB
0
TABLE
2
UCS
5
7
100
AcDbSymbolTable
70
0
0
ENDTAB
0
TABLE
2
APPID
5
9
100
AcDbSymbolTable
70
2
0
APPID
5
12
100
AcDbSymbolTableRecord
100
AcDbRegAppTableRecord
2
ACAD
70
0
0
ENDTAB
0
TABLE
2
DIMSTYLE
5
A
100
AcDbSymbolTable
70
1
0
ENDTAB
0
TABLE
2
BLOCK_RECORD
5
1
100
AcDbSymbolTable
70
1
0
BLOCK_RECORD
5
1F
100
AcDbSymbolTableRecord
100
AcDbBlockTableRecord
2
*MODEL_SPACE
0
BLOCK_RECORD
5
1B
100
AcDbSymbolTableRecord
100
AcDbBlockTableRecord
2
*PAPER_SPACE
0
ENDTAB
0
ENDSEC
0
SECTION
2
BLOCKS
0
BLOCK
5
20
100
AcDbEntity
100
AcDbBlockBegin
2
*MODEL_SPACE
0
ENDBLK
5
21
100
AcDbEntity
100
AcDbBlockEnd
0
BLOCK
5
1C
100
AcDbEntity
100
AcDbBlockBegin
2
*PAPER_SPACE
0
ENDBLK
5
1D
100
AcDbEntity
100
AcDbBlockEnd
0
ENDSEC
0
SECTION
2
ENTITIES
0
LWPOLYLINE
5
100
100
AcDbEntity
8
0
100
AcDbPolyline
90
44
70
1
43
0.0
10
109.49999999999973
20
107.48516977682911
10
105.98516977682885
20
111.00000000000001
10
101.01471862576149
20
111.00000000000001
10
60.014718625761404
20
70
10
43.900116000000025
20
70
10
2.9001160000000858
20
111.00000000000001
10
-5.900116000000093
20
110.99999999999991
10
-46.900116000000303
20
70
10
-68.014718625761503
20
70
10
-109.01471862576157
20
111.00000000000001
10
-113.98516977682925
20
111.00000000000001
10
-117.50000000000016
20
107.48516977682911
10
-117.50000000000023
20
102.5147186257615
10
-90.500000000000142
20
75.514718625761503
10
-90.500000000000128
20
62.000000000000099
10
-100.00000000000013
20
52.5
10
-100.00000000000011
20
21.239105000000009
10
-117.50000000000354
20
3.739104999996492
10
-117.50000000000354
20
-3.7391049999966341
10
-100.00000000000011
20
-21.239104999999974
10
-100.00000000000013
20
-52.499999999999588
10
-90.500000000000128
20
-61.999999999999993
10
-90.500000000000142
20
-75.514718625761418
10
-117.50000000000023
20
-102.5147186257614
10
-117.50000000000001
20
-107.48516977682922
10
-113.98516977682925
20
-110.99999999999997
10
-109.01471862576157
20
-111
10
-68.014718625761503
20
-69.999999999999886
10
-46.900116000000303
20
-70
10
-5.900116000000093
20
-110.99999999999997
10
2.9001160000000858
20
-110.99999999999997
10
43.900116000000025
20
-70
10
60.014718625761404
20
-70
10
101.01471862576149
20
-110.99999999999997
10
105.98516977682885
20
-110.99999999999997
10
109.49999999999973
20
-107.48516977682922
10
109.50000000000001
20
-102.51471862576139
10
71.499999999999901
20
-64.514718625761489
10
71.499999999999901
20
-41.666961000000171
10
109.50000000000001
20
-3.6669609999999864
10
109.50000000000001
20
3.6669609999999864
10
71.499999999999901
20
41.666961000000207
10
71.499999999999901
20
64.514718625761418
10
109.50000000000001
20
102.51471862576111
0
LWPOLYLINE
5
101
100
AcDbEntity
8
0
100
AcDbPolyline
90
8
70
1
43
0.0
10
59.485289999999736
20
-35.529449
10
42.514708999999925
20
-35.529449
10
15.499999999999883
20
-8.5147399999999962
10
15.499999999999883
20
8.5147399999999962
10
42.514708999999925
20
35.529449000000035
10
59.485289999999736
20
35.529449000000035
10
69.999999999999915
20
25.014709000000011
10
69.999999999999915
20
-25.014709000000082
0
LWPOLYLINE
5
102
100
AcDbEntity
8
0
100
AcDbPolyline
90
8
70
1
43
0.0
10
-80.000000000000085
20
-4.4999999999999929
10
-56.500029993106807
20
-27.999999999999989
10
-39.52296781997088
20
-27.999999999999989
10
-19.500000000000153
20
-7.9770321800291555
10
-19.500000000000153
20
7.9770321800292976
10
-39.52296781997088
20
28.000000000000007
10
-56.500029993106807
20
28.000000000000007
10
-80.000000000000085
20
4.4999999999999929
0
LWPOLYLINE
5
103
100
AcDbEntity
8
0
100
AcDbPolyline
90
8
70
1
43
0.0
10
18.014739999999758
20
-27.999999999999989
10
-21.933686000000296
20
-27.999999999999989
10
-38.500000000000142
20
-44.566313999999991
10
-38.500000000000142
20
-61.415770999999921
10
-5.1826170000003025
20
-94.733153999999772
10
2.1826170000000111
20
-94.746963115770129
10
34.499999999999687
20
-62.429580115770307
10
34.499999999999901
20
-44.485260000000011
0
LWPOLYLINE
5
104
100
AcDbEntity
8
0
100
AcDbPolyline
90
8
70
1
43
0.0
10
-38.500000000000142
20
44.566314000000027
10
-38.500000000000142
20
61.415770999999921
10
-5.1826170000003025
20
94.733153999999757
10
2.1826170000000111
20
94.746963115770086
10
34.499999999999687
20
62.429580115770307
10
34.499999999999901
20
44.485260000000011
10
18.014739999999758
20
28.000000000000007
10
-21.933686000000296
20
28.000000000000007
0
LINE
5
105
100
AcDbEntity
8
0
100
AcDbLine
10
-79.999999986910211
20
-28.249999999999993
30
0
11
-79.999999986910211
21
-41.749999999999986
31
0
0
ARC
5
106
100
AcDbEntity
8
0
100
AcDbCircle
10
90.599999999999937
20
10.250000000000021
30
0
40
3.0000000000000115
210
0
220
0
230
1
100
AcDbArc
50
-89.99999700000042
51
89.999996999999865
0
ARC
5
107
100
AcDbEntity
8
0
100
AcDbCircle
10
-90.600000000000136
20
-24.749999999999979
30
0
40
3.0000000000000115
210
0
220
0
230
1
100
AcDbArc
50
90.000002999999865
51
269.99999700000012
0
LINE
5
108
100
AcDbEntity
8
0
100
AcDbLine
10
-79.999999986910211
20
41.750000000000007
30
0
11
-79.999999986910211
21
28.250000000000028
31
0
0
ARC
5
109
100
AcDbEntity
8
0
100
AcDbCircle
10
-90.600000000000136
20
45.250000000000021
30
0
40
3.0000000000000115
210
0
220
0
230
1
100
AcDbArc
50
90.000002999999865
51
269.99999700000012
0
ARC
5
110
100
AcDbEntity
8
0
100
AcDbCircle
10
-79.400000000000134
20
24.750000000000014
30
0
40
3.0000000000000115
210
0
220
0
230
1
100
AcDbArc
50
-89.999997000000164
51
89.999997000000135
0
ARC
5
111
100
AcDbEntity
8
0
100
AcDbCircle
10
-79.400000000000134
20
-45.249999999999986
30
0
40
2.9999999999999933
210
0
220
0
230
1
100
AcDbArc
50
-89.999997000000164
51
89.999997000000135
0
LINE
5
112
100
AcDbEntity
8
0
100
AcDbLine
10
79.999999986910012
20
6.7500000000000071
30
0
11
79.999999986910012
21
-6.7500000000000071
31
0
0
ARC
5
113
100
AcDbEntity
8
0
100
AcDbCircle
10
79.39999999999992
20
-10.249999999999986
30
0
40
3.0000000000000115
210
0
220
0
230
1
100
AcDbArc
50
90.000003000000135
51
269.99999700000035
0
ARC
5
114
100
AcDbEntity
8
0
100
AcDbCircle
10
-79.400000000000134
20
45.250000000000021
30
0
40
3.0000000000000115
210
0
220
0
230
1
100
AcDbArc
50
-89.999997000000164
51
89.999997000000135
0
ARC
5
115
100
AcDbEntity
8
0
100
AcDbCircle
10
79.39999999999992
20
10.250000000000021
30
0
40
3.0000000000000115
210
0
220
0
230
1
100
AcDbArc
50
90.000003000000135
51
269.99999700000035
0
ARC
5
116
100
AcDbEntity
8
0
100
AcDbCircle
10
-90.600000000000136
20
-45.249999999999986
30
0
40
2.9999999999999933
210
0
220
0
230
1
100
AcDbArc
50
90.000002999999865
51
269.99999700000012
0
LINE
5
117
100
AcDbEntity
8
0
100
AcDbLine
10
-90.00000001309013
20
41.750000000000007
30
0
11
-90.00000001309013
21
28.250000000000028
31
0
0
LINE
5
118
100
AcDbEntity
8
0
100
AcDbLine
10
90.000000013089746
20
6.7500000000000071
30
0
11
90.000000013089746
21
-6.7500000000000071
31
0
0
ARC
5
119
100
AcDbEntity
8
0
100
AcDbCircle
10
-90.600000000000136
20
24.750000000000014
30
0
40
3.0000000000000115
210
0
220
0
230
1
100
AcDbArc
50
90.000002999999865
51
269.99999700000012
0
ARC
5
120
100
AcDbEntity
8
0
100
AcDbCircle
10
90.599999999999937
20
-10.249999999999986
30
0
40
3.0000000000000115
210
0
220
0
230
1
100
AcDbArc
50
-89.99999700000042
51
89.999996999999865
0
ARC
5
121
100
AcDbEntity
8
0
100
AcDbCircle
10
-79.400000000000134
20
-24.749999999999979
30
0
40
2.9999999999999933
210
0
220
0
230
1
100
AcDbArc
50
-89.999997000000164
51
89.999997000000135
0
CIRCLE
5
122
100
AcDbEntity
8
0
100
AcDbCircle
10
-95.000000000000128
20
-35
30
0
40
1.6000000000000003
210
0
220
0
230
1
0
LINE
5
123
100
AcDbEntity
8
0
100
AcDbLine
10
-90.00000001309013
20
-28.249999999999993
30
0
11
-90.00000001309013
21
-41.749999999999986
31
0
0
CIRCLE
5
124
100
AcDbEntity
8
0
100
AcDbCircle
10
-75.000000000000085
20
35
30
0
40
1.6000000000000003
210
0
220
0
230
1
0
CIRCLE
5
125
100
AcDbEntity
8
0
100
AcDbCircle
10
74.999999999999915
20
0
30
0
40
1.6000000000000003
210
0
220
0
230
1
0
CIRCLE
5
126
100
AcDbEntity
8
0
100
AcDbCircle
10
-95.000000000000128
20
35
30
0
40
1.6000000000000003
210
0
220
0
230
1
0
CIRCLE
5
127
100
AcDbEntity
8
0
100
AcDbCircle
10
94.999999999999915
20
0
30
0
40
1.6000000000000003
210
0
220
0
230
1
0
CIRCLE
5
128
100
AcDbEntity
8
0
100
AcDbCircle
10
-75.000000000000085
20
-35
30
0
40
1.6000000000000003
210
0
220
0
230
1
0
LINE
5
129
100
AcDbEntity
8
0
100
AcDbLine
10
79.999999986910012
20
6.7500000000000071
30
0
11
79.499999986909998
21
7.2500000000000142
31
0
0
LINE
5
130
100
AcDbEntity
8
0
100
AcDbLine
10
79.399999842920309
20
-13.249999999999993
30
0
11
90.600000157079549
21
-13.249999999999993
31
0
0
LINE
5
131
100
AcDbEntity
8
0
100
AcDbLine
10
90.600000157079577
20
-7.2499999999999787
30
0
11
90.500000013089746
21
-7.2499999999999787
31
0
0
LINE
5
132
100
AcDbEntity
8
0
100
AcDbLine
10
-79.999999986910211
20
41.750000000000007
30
0
11
-79.499999986910211
21
42.250000000000014
31
0
0
LINE
5
133
100
AcDbEntity
8
0
100
AcDbLine
10
-79.999999986910211
20
-28.249999999999993
30
0
11
-79.499999986910211
21
-27.749999999999986
31
0
0
LINE
5
134
100
AcDbEntity
8
0
100
AcDbLine
10
79.39999984292028
20
13.250000000000028
30
0
11
90.600000157079577
21
13.250000000000028
31
0
0
LINE
5
135
100
AcDbEntity
8
0
100
AcDbLine
10
-79.499999986910211
20
-42.25
30
0
11
-79.999999986910211
21
-41.749999999999986
31
0
0
LINE
5
136
100
AcDbEntity
8
0
100
AcDbLine
10
-90.50000001309013
20
27.750000000000021
30
0
11
-90.00000001309013
21
28.250000000000028
31
0
0
LINE
5
137
100
AcDbEntity
8
0
100
AcDbLine
10
-79.399999842920508
20
42.250000000000014
30
0
11
-79.499999986910211
21
42.250000000000014
31
0
0
LINE
5
138
100
AcDbEntity
8
0
100
AcDbLine
10
-90.00000001309013
20
-28.249999999999993
30
0
11
-90.50000001309013
21
-27.749999999999986
31
0
0
LINE
5
139
100
AcDbEntity
8
0
100
AcDbLine
10
-90.600000157079762
20
48.250000000000028
30
0
11
-79.399999842920508
21
48.250000000000028
31
0
0
LINE
5
140
100
AcDbEntity
8
0
100
AcDbLine
10
-90.00000001309013
20
41.750000000000007
30
0
11
-90.50000001309013
21
42.250000000000014
31
0
0
LINE
5
141
100
AcDbEntity
8
0
100
AcDbLine
10
-79.399999842920508
20
27.750000000000021
30
0
11
-79.499999986910211
21
27.750000000000021
31
0
0
LINE
5
142
100
AcDbEntity
8
0
100
AcDbLine
10
-79.399999842920508
20
-42.25
30
0
11
-79.499999986910211
21
-42.25
31
0
0
LINE
5
143
100
AcDbEntity
8
0
100
AcDbLine
10
90.000000013089746
20
6.7500000000000071
30
0
11
90.500000013089746
21
7.2500000000000142
31
0
0
LINE
5
144
100
AcDbEntity
8
0
100
AcDbLine
10
-90.600000157079762
20
42.250000000000014
30
0
11
-90.50000001309013
21
42.250000000000014
31
0
0
LINE
5
145
100
AcDbEntity
8
0
100
AcDbLine
10
79.499999986909998
20
-7.2499999999999787
30
0
11
79.999999986910012
21
-6.7500000000000071
31
0
0
LINE
5
146
100
AcDbEntity
8
0
100
AcDbLine
10
-79.499999986910211
20
27.750000000000021
30
0
11
-79.999999986910211
21
28.250000000000028
31
0
0
LINE
5
147
100
AcDbEntity
8
0
100
AcDbLine
10
90.500000013089746
20
-7.2499999999999787
30
0
11
90.000000013089746
21
-6.7500000000000071
31
0
0
LINE
5
148
100
AcDbEntity
8
0
100
AcDbLine
10
-90.600000157079762
20
-48.249999999999972
30
0
11
-79.399999842920508
21
-48.249999999999972
31
0
0
LINE
5
149
100
AcDbEntity
8
0
100
AcDbLine
10
-90.600000157079762
20
-27.749999999999968
30
0
11
-90.50000001309013
21
-27.749999999999986
31
0
0
LINE
5
150
100
AcDbEntity
8
0
100
AcDbLine
10
79.39999984292028
20
-7.2499999999999787
30
0
11
79.499999986909998
21
-7.2499999999999787
31
0
0
LINE
5
151
100
AcDbEntity
8
0
100
AcDbLine
10
-90.50000001309013
20
-42.25
30
0
11
-90.00000001309013
21
-41.749999999999986
31
0
0
LINE
5
152
100
AcDbEntity
8
0
100
AcDbLine
10
-90.600000157079762
20
21.750000000000007
30
0
11
-79.399999842920508
21
21.750000000000007
31
0
0
LINE
5
153
100
AcDbEntity
8
0
100
AcDbLine
10
90.600000157079549
20
7.2500000000000142
30
0
11
90.500000013089746
21
7.2500000000000142
31
0
0
LINE
5
154
100
AcDbEntity
8
0
100
AcDbLine
10
79.399999842920309
20
7.2500000000000142
30
0
11
79.499999986909998
21
7.2500000000000142
31
0
0
LINE
5
155
100
AcDbEntity
8
0
100
AcDbLine
10
-90.600000157079762
20
27.750000000000021
30
0
11
-90.50000001309013
21
27.750000000000021
31
0
0
LINE
5
156
100
AcDbEntity
8
0
100
AcDbLine
10
-90.600000157079762
20
-21.749999999999972
30
0
11
-79.399999842920508
21
-21.749999999999972
31
0
0
LINE
5
157
100
AcDbEntity
8
0
100
AcDbLine
10
-90.600000157079762
20
-42.25
30
0
11
-90.50000001309013
21
-42.25
31
0
0
LINE
5
158
100
AcDbEntity
8
0
100
AcDbLine
10
-79.399999842920508
20
-27.749999999999968
30
0
11
-79.499999986910211
21
-27.749999999999986
31
0
0
CIRCLE
5
159
100
AcDbEntity
8
0
100
AcDbCircle
10
103.49999999999989
20
105
30
0
40
1.5000000000000002
210
0
220
0
230
1
0
CIRCLE
5
160
100
AcDbEntity
8
0
100
AcDbCircle
10
-1.2434497875801753e-13
20
-19.499999999999993
30
0
40
1.5000000000000002
210
0
220
0
230
1
0
CIRCLE
5
161
100
AcDbEntity
8
0
100
AcDbCircle
10
-1.2434497875801753e-13
20
19.500000000000028
30
0
40
1.5000000000000002
210
0
220
0
230
1
0
CIRCLE
5
162
100
AcDbEntity
8
0
100
AcDbCircle
10
-111.50000000000014
20
-1.0658141036401503e-13
30
0
40
1.5000000000000002
210
0
220
0
230
1
0
CIRCLE
5
163
100
AcDbEntity
8
0
100
AcDbCircle
10
103.49999999999989
20
-105
30
0
40
1.5000000000000002
210
0
220
0
230
1
0
CIRCLE
5
164
100
AcDbEntity
8
0
100
AcDbCircle
10
-1.5000000000001101
20
-105
30
0
40
1.5000000000000002
210
0
220
0
230
1
0
CIRCLE
5
165
100
AcDbEntity
8
0
100
AcDbCircle
10
-111.50000000000014
20
-105
30
0
40
1.5000000000000002
210
0
220
0
230
1
0
CIRCLE
5
166
100
AcDbEntity
8
0
100
AcDbCircle
10
-1.5000000000001101
20
105
30
0
40
1.5000000000000002
210
0
220
0
230
1
0
CIRCLE
5
167
100
AcDbEntity
8
0
100
AcDbCircle
10
-1.5000000000001101
20
0
30
0
40
1.5000000000000002
210
0
220
0
230
1
0
CIRCLE
5
168
100
AcDbEntity
8
0
100
AcDbCircle
10
103.49999999999989
20
0
30
0
40
1.5000000000000002
210
0
220
0
230
1
0
CIRCLE
5
169
100
AcDbEntity
8
0
100
AcDbCircle
10
-111.50000000000014
20
105
30
0
40
1.5000000000000002
210
0
220
0
230
1
0
CIRCLE
5
170
100
AcDbEntity
8
0
100
AcDbCircle
10
-81.500000000000142
20
55
30
0
40
1.6000000000000003
210
0
220
0
230
1
0
CIRCLE
5
171
100
AcDbEntity
8
0
100
AcDbCircle
10
-81.500000000000142
20
65
30
0
40
1.6000000000000003
210
0
220
0
230
1
0
ENDSEC
0
SECTION
2
OBJECTS
0
DICTIONARY
5
C
100
AcDbDictionary
3
ACAD_GROUP
350
D
3
ACAD_MLINESTYLE
350
17
0
DICTIONARY
5
D
100
AcDbDictionary
0
DICTIONARY
5
1A
330
C
100
AcDbDictionary
0
DICTIONARY
5
17
100
AcDbDictionary
0
ENDSEC
0
EOF
