0
SECTION
2
HEADER
9
$INSUNITS
70
4
9
$ACADVER
1
AC1014
9
$HANDSEED
5
FFFF
0
ENDSEC
0
SECTION
2
TABLES
0
TABLE
2
VPORT
5
8
100
AcDbSymbolTable
0
ENDTAB
0
TABLE
2
LTYPE
5
5
100
AcDbSymbolTable
0
LTYPE
5
14
100
AcDbSymbolTableRecord
100
AcDbLinetypeTableRecord
2
BYBLOCK
70
0
0
LTYPE
5
15
100
AcDbSymbolTableRecord
100
AcDbLinetypeTableRecord
2
BYLAYER
70
0
0
ENDTAB
0
TABLE
2
LAYER
5
2
100
AcDbSymbolTable
70
2
0
LAYER
5
50
100
AcDbSymbolTableRecord
100
AcDbLayerTableRecord
2
0
70
0
6
CONTINUOUS
0
ENDTAB
0
TABLE
2
STYLE
5
3
100
AcDbSymbolTable
70
1
0
STYLE
5
11
100
AcDbSymbolTableRecord
100
AcDbTextStyleTableRecord
2
STANDARD
70
0
0
ENDTAB
0
TABLE
2
VIEW
5
6
100
AcDbSymbolTable
70
0
0
ENDTAB
0
TABLE
2
UCS
5
7
100
AcDbSymbolTable
70
0
0
ENDTAB
0
TABLE
2
APPID
5
9
100
AcDbSymbolTable
70
2
0
APPID
5
12
100
AcDbSymbolTableRecord
100
AcDbRegAppTableRecord
2
ACAD
70
0
0
ENDTAB
0
TABLE
2
DIMSTYLE
5
A
100
AcDbSymbolTable
70
1
0
ENDTAB
0
TABLE
2
BLOCK_RECORD
5
1
100
AcDbSymbolTable
70
1
0
BLOCK_RECORD
5
1F
100
AcDbSymbolTableRecord
100
AcDbBlockTableRecord
2
*MODEL_SPACE
0
BLOCK_RECORD
5
1B
100
AcDbSymbolTableRecord
100
AcDbBlockTableRecord
2
*PAPER_SPACE
0
ENDTAB
0
ENDSEC
0
SECTION
2
BLOCKS
0
BLOCK
5
20
100
AcDbEntity
100
AcDbBlockBegin
2
*MODEL_SPACE
0
ENDBLK
5
21
100
AcDbEntity
100
AcDbBlockEnd
0
BLOCK
5
1C
100
AcDbEntity
100
AcDbBlockBegin
2
*PAPER_SPACE
0
ENDBLK
5
1D
100
AcDbEntity
100
AcDbBlockEnd
0
ENDSEC
0
SECTION
2
ENTITIES
0
CIRCLE
5
100
100
AcDbEntity
8
0
100
AcDbCircle
10
101.00000000000001
20
-110
30
0
40
5.9999999999999973
210
0
220
0
230
1
0
LWPOLYLINE
5
101
100
AcDbEntity
8
0
100
AcDbPolyline
90
4
70
1
43
0.0
10
160
20
160
10
-160
20
160
10
-160
20
-160
10
160
20
-160
0
LINE
5
102
100
AcDbEntity
8
0
100
AcDbLine
10
1.75
20
0
30
0
11
22.5
21
0
31
0
0
LINE
5
103
100
AcDbEntity
8
0
100
AcDbLine
10
0
20
-1.75
30
0
11
0
21
-22.5
31
0
0
CIRCLE
5
104
100
AcDbEntity
8
0
100
AcDbCircle
10
-135
20
110
30
0
40
5.9999999999999973
210
0
220
0
230
1
0
CIRCLE
5
105
100
AcDbEntity
8
0
100
AcDbCircle
10
-135
20
110
30
0
40
5.9999999999999973
210
0
220
0
230
1
0
CIRCLE
5
106
100
AcDbEntity
8
0
100
AcDbCircle
10
-133
20
-110
30
0
40
5.9999999999999973
210
0
220
0
230
1
0
CIRCLE
5
107
100
AcDbEntity
8
0
100
AcDbCircle
10
-135
20
110
30
0
40
5.9999999999999973
210
0
220
0
230
1
0
CIRCLE
5
108
100
AcDbEntity
8
0
100
AcDbCircle
10
99.000000000000028
20
110
30
0
40
5.9999999999999973
210
0
220
0
230
1
0
CIRCLE
5
109
100
AcDbEntity
8
0
100
AcDbCircle
10
28.010107891941161
20
-15.826543227286331
30
0
40
1.5000000000000002
210
0
220
0
230
1
0
LINE
5
110
100
AcDbEntity
8
0
100
AcDbLine
10
118.51010790503075
20
-3.5765432272863551
30
0
11
118.01010790503074
21
-3.0765432272863844
31
0
0
LWPOLYLINE
5
111
100
AcDbEntity
8
0
100
AcDbPolyline
90
44
70
1
43
0.0
10
30.910223891941364
20
-107.32654322728604
10
71.910223891941172
20
-66.32654322728618
10
88.024826517702493
20
-66.32654322728618
10
129.02482651770245
20
-107.32654322728604
10
133.9952776687698
20
-107.32654322728604
10
137.51010789194066
20
-103.81171300411529
10
137.51010789194095
20
-98.841261853047456
10
99.510107891940947
20
-60.841261853047683
10
99.510107891940947
20
-37.993504227286437
10
137.51010789194095
20
0.0064957727136250032
10
137.51010789194095
20
7.3404177727135744
10
99.510107891940947
20
45.340417772713678
10
99.510107891940947
20
68.188175398474812
10
137.51010789194095
20
106.18817539847436
10
137.51010789194066
20
111.15862654954236
10
133.9952776687698
20
114.67345677271325
10
129.02482651770245
20
114.67345677271325
10
88.024826517702493
20
73.673456772713379
10
71.910223891941172
20
73.673456772713379
10
30.910223891941364
20
114.67345677271325
10
22.10999189194121
20
114.67345677271314
10
-18.890008108058865
20
73.673456772713379
10
-40.004610733819995
20
73.673456772713379
10
-81.004610733819931
20
114.67345677271325
10
-85.975061884887594
20
114.67345677271325
10
-89.489892108058498
20
111.15862654954236
10
-89.489892108058569
20
106.18817539847475
10
-62.489892108058584
20
79.188175398474868
10
-62.489892108058562
20
65.673456772713507
10
-71.989892108058513
20
56.173456772713436
10
-71.989892108058498
20
24.912561772713538
10
-89.489892108061881
20
7.4125617727100774
10
-89.489892108061881
20
-0.065648227283023886
10
-71.989892108058498
20
-17.56564822728631
10
-71.989892108058513
20
-48.826543227285825
10
-62.489892108058562
20
-58.326543227286194
10
-62.489892108058584
20
-71.84126185304757
10
-89.489892108058569
20
-98.841261853047484
10
-89.489892108058356
20
-103.81171300411529
10
-85.975061884887594
20
-107.32654322728604
10
-81.004610733819931
20
-107.32654322728605
10
-40.004610733819995
20
-66.326543227286066
10
-18.890008108058865
20
-66.32654322728618
10
22.10999189194121
20
-107.32654322728604
0
LWPOLYLINE
5
112
100
AcDbEntity
8
0
100
AcDbPolyline
90
8
70
1
43
0.0
10
62.510107891940869
20
-58.756123343056501
10
62.510107891941082
20
-40.811803227286269
10
46.024847891940993
20
-24.326543227286301
10
6.0764218919410595
20
-24.326543227286301
10
-10.489892108058729
20
-40.89285722728625
10
-10.489892108058729
20
-57.742314227286123
10
22.827490891941
20
-91.059697227285881
10
30.192724891941292
20
-91.073506343056238
0
CIRCLE
5
113
100
AcDbEntity
8
0
100
AcDbCircle
10
103.01010789194095
20
3.6734567727135996
30
0
40
1.6000000000000003
210
0
220
0
230
1
0
LWPOLYLINE
5
114
100
AcDbEntity
8
0
100
AcDbPolyline
90
8
70
1
43
0.0
10
6.0764218919410595
20
31.673456772713521
10
-10.489892108058729
20
48.239770772713484
10
-10.489892108058729
20
65.089227772713329
10
22.827490891941
20
98.406610772713051
10
30.192724891941289
20
98.42041988848338
10
62.510107891940869
20
66.1030368884837
10
62.510107891941082
20
48.158716772713468
10
46.024847891940993
20
31.673456772713521
0
LINE
5
115
100
AcDbEntity
8
0
100
AcDbLine
10
-51.98989209496866
20
-24.576543227286301
30
0
11
-51.489892094968674
21
-24.076543227286294
31
0
0
LWPOLYLINE
5
116
100
AcDbEntity
8
0
100
AcDbPolyline
90
8
70
1
43
0.0
10
70.524816891941072
20
39.202905772713521
10
87.495397891940826
20
39.202905772713521
10
98.010107891940976
20
28.688165772713532
10
98.010107891940976
20
-21.3412522272864
10
87.495397891940826
20
-31.855992227286283
10
70.524816891941072
20
-31.855992227286283
10
43.510107891941118
20
-4.8412832272863682
10
43.510107891941118
20
12.188196772713567
0
CIRCLE
5
117
100
AcDbEntity
8
0
100
AcDbCircle
10
123.01010789194089
20
3.6734567727135996
30
0
40
1.6000000000000003
210
0
220
0
230
1
0
LINE
5
118
100
AcDbEntity
8
0
100
AcDbLine
10
-62.589892265138189
20
31.423456772713536
30
0
11
-62.489892121148557
21
31.423456772713536
31
0
0
CIRCLE
5
119
100
AcDbEntity
8
0
100
AcDbCircle
10
-53.489892108058598
20
58.673456772713422
30
0
40
1.6000000000000003
210
0
220
0
230
1
0
CIRCLE
5
120
100
AcDbEntity
8
0
100
AcDbCircle
10
-53.489892108058598
20
68.673456772713394
30
0
40
1.6000000000000003
210
0
220
0
230
1
0
LINE
5
121
100
AcDbEntity
8
0
100
AcDbLine
10
-62.589892265138189
20
-18.076543227286301
30
0
11
-51.389891950978964
21
-18.076543227286301
31
0
0
LINE
5
122
100
AcDbEntity
8
0
100
AcDbLine
10
108.01010787885104
20
10.423456772713584
30
0
11
107.51010787885104
21
10.923456772713589
31
0
0
LINE
5
123
100
AcDbEntity
8
0
100
AcDbLine
10
-62.589892265138189
20
45.923456772713479
30
0
11
-62.489892121148557
21
45.923456772713479
31
0
0
CIRCLE
5
124
100
AcDbEntity
8
0
100
AcDbCircle
10
-46.989892108058562
20
-31.326543227286294
30
0
40
1.6000000000000003
210
0
220
0
230
1
0
CIRCLE
5
125
100
AcDbEntity
8
0
100
AcDbCircle
10
131.51010789194083
20
108.67345677271325
30
0
40
1.5000000000000002
210
0
220
0
230
1
0
LINE
5
126
100
AcDbEntity
8
0
100
AcDbLine
10
-51.489892094968674
20
31.423456772713536
30
0
11
-51.98989209496866
21
31.923456772713543
31
0
0
LWPOLYLINE
5
127
100
AcDbEntity
8
0
100
AcDbPolyline
90
8
70
1
43
0.0
10
-51.989892108058548
20
-0.82654322728638041
10
-51.989892108058548
20
8.1734567727135765
10
-28.489922101165348
20
31.673456772713521
10
-11.512859928029467
20
31.673456772713521
10
8.5101078919411943
20
11.650488952742872
10
8.5101078919411943
20
-4.3035754073155319
10
-11.512859928029467
20
-24.326543227286301
10
-28.489922101165348
20
-24.326543227286301
0
LINE
5
128
100
AcDbEntity
8
0
100
AcDbLine
10
108.01010787885104
20
10.423456772713584
30
0
11
108.01010787885104
21
-3.0765432272863857
31
0
0
LINE
5
129
100
AcDbEntity
8
0
100
AcDbLine
10
-51.98989209496866
20
45.423456772713479
30
0
11
-51.98989209496866
21
31.923456772713543
31
0
0
CIRCLE
5
130
100
AcDbEntity
8
0
100
AcDbCircle
10
-83.489892108058513
20
3.6734567727134921
30
0
40
1.5000000000000002
210
0
220
0
230
1
0
CIRCLE
5
131
100
AcDbEntity
8
0
100
AcDbCircle
10
26.510107891941178
20
108.67345677271325
30
0
40
1.5000000000000002
210
0
220
0
230
1
0
ARC
5
132
100
AcDbEntity
8
0
100
AcDbCircle
10
107.41010789194095
20
13.923456772713587
30
0
40
3.0000000000000027
210
0
220
0
230
1
100
AcDbArc
50
90.000003000000135
51
269.99999700000069
0
ARC
5
133
100
AcDbEntity
8
0
100
AcDbCircle
10
-62.589892108058564
20
48.923456772713479
30
0
40
3.0000000000000027
210
0
220
0
230
1
100
AcDbArc
50
90.000002999999865
51
269.99999700000012
0
LINE
5
134
100
AcDbEntity
8
0
100
AcDbLine
10
-51.389891950978964
20
31.423456772713536
30
0
11
-51.489892094968674
21
31.423456772713536
31
0
0
ARC
5
135
100
AcDbEntity
8
0
100
AcDbCircle
10
-51.389892108058596
20
-21.076543227286297
30
0
40
2.9999999999999849
210
0
220
0
230
1
100
AcDbArc
50
-89.999997000000008
51
89.999997000000008
0
LINE
5
136
100
AcDbEntity
8
0
100
AcDbLine
10
-61.989892121148564
20
45.423456772713479
30
0
11
-61.989892121148564
21
31.923456772713543
31
0
0
LINE
5
137
100
AcDbEntity
8
0
100
AcDbLine
10
-62.589892265138189
20
-24.07654322728628
30
0
11
-62.489892121148557
21
-24.076543227286294
31
0
0
CIRCLE
5
138
100
AcDbEntity
8
0
100
AcDbCircle
10
28.010107891941161
20
23.173456772713568
30
0
40
1.5000000000000002
210
0
220
0
230
1
0
LINE
5
139
100
AcDbEntity
8
0
100
AcDbLine
10
118.61010804902054
20
10.923456772713591
30
0
11
118.51010790503075
21
10.923456772713591
31
0
0
CIRCLE
5
140
100
AcDbEntity
8
0
100
AcDbCircle
10
-83.489892108058513
20
108.67345677271325
30
0
40
1.5000000000000002
210
0
220
0
230
1
0
CIRCLE
5
141
100
AcDbEntity
8
0
100
AcDbCircle
10
-66.989892108058541
20
-31.326543227286294
30
0
40
1.6000000000000003
210
0
220
0
230
1
0
ARC
5
142
100
AcDbEntity
8
0
100
AcDbCircle
10
118.61010789194094
20
13.923456772713587
30
0
40
3.0000000000000004
210
0
220
0
230
1
100
AcDbArc
50
-89.999997000000675
51
89.999996999999865
0
CIRCLE
5
143
100
AcDbEntity
8
0
100
AcDbCircle
10
-46.989892108058562
20
38.673456772713486
30
0
40
1.6000000000000003
210
0
220
0
230
1
0
LINE
5
144
100
AcDbEntity
8
0
100
AcDbLine
10
107.41010773486131
20
16.923456772713585
30
0
11
118.61010804902058
21
16.923456772713585
31
0
0
CIRCLE
5
145
100
AcDbEntity
8
0
100
AcDbCircle
10
-66.989892108058541
20
38.673456772713486
30
0
40
1.6000000000000003
210
0
220
0
230
1
0
LINE
5
146
100
AcDbEntity
8
0
100
AcDbLine
10
-51.389891950978964
20
45.923456772713479
30
0
11
-51.489892094968674
21
45.923456772713479
31
0
0
LINE
5
147
100
AcDbEntity
8
0
100
AcDbLine
10
118.01010790503074
20
10.423456772713585
30
0
11
118.51010790503075
21
10.923456772713591
31
0
0
LINE
5
148
100
AcDbEntity
8
0
100
AcDbLine
10
-62.589892265138189
20
51.923456772713479
30
0
11
-51.389891950978964
21
51.923456772713479
31
0
0
CIRCLE
5
149
100
AcDbEntity
8
0
100
AcDbCircle
10
-83.489892108058513
20
-101.32654322728607
30
0
40
1.5000000000000002
210
0
220
0
230
1
0
LINE
5
150
100
AcDbEntity
8
0
100
AcDbLine
10
-62.589892265138189
20
-38.576543227286265
30
0
11
-62.489892121148557
21
-38.576543227286265
31
0
0
LINE
5
151
100
AcDbEntity
8
0
100
AcDbLine
10
107.41010773486136
20
10.923456772713589
30
0
11
107.51010787885104
21
10.923456772713589
31
0
0
LINE
5
152
100
AcDbEntity
8
0
100
AcDbLine
10
-62.589892265138189
20
-44.576543227286223
30
0
11
-51.389891950978964
21
-44.576543227286223
31
0
0
LINE
5
153
100
AcDbEntity
8
0
100
AcDbLine
10
-51.98989209496866
20
45.423456772713479
30
0
11
-51.489892094968674
21
45.923456772713479
31
0
0
LINE
5
154
100
AcDbEntity
8
0
100
AcDbLine
10
-61.989892121148564
20
45.423456772713479
30
0
11
-62.489892121148557
21
45.923456772713479
31
0
0
ARC
5
155
100
AcDbEntity
8
0
100
AcDbCircle
10
-62.589892108058564
20
28.423456772713536
30
0
40
3.0000000000000027
210
0
220
0
230
1
100
AcDbArc
50
90.000002999999865
51
269.99999700000012
0
LINE
5
156
100
AcDbEntity
8
0
100
AcDbLine
10
-51.389891950978964
20
-24.07654322728628
30
0
11
-51.489892094968674
21
-24.076543227286294
31
0
0
LINE
5
157
100
AcDbEntity
8
0
100
AcDbLine
10
-62.589892265138189
20
25.423456772713536
30
0
11
-51.389891950978964
21
25.423456772713536
31
0
0
ARC
5
158
100
AcDbEntity
8
0
100
AcDbCircle
10
-62.589892108058564
20
-41.576543227286244
30
0
40
2.9999999999999849
210
0
220
0
230
1
100
AcDbArc
50
90.000002999999865
51
269.99999700000012
0
ARC
5
159
100
AcDbEntity
8
0
100
AcDbCircle
10
-51.389892108058596
20
28.423456772713536
30
0
40
3.0000000000000027
210
0
220
0
230
1
100
AcDbArc
50
-89.999997000000008
51
89.999997000000008
0
LINE
5
160
100
AcDbEntity
8
0
100
AcDbLine
10
-61.989892121148564
20
-24.576543227286301
30
0
11
-61.989892121148564
21
-38.076543227286251
31
0
0
ARC
5
161
100
AcDbEntity
8
0
100
AcDbCircle
10
-51.389892108058596
20
-41.576543227286244
30
0
40
2.9999999999999849
210
0
220
0
230
1
100
AcDbArc
50
-89.999997000000008
51
89.999997000000008
0
LINE
5
162
100
AcDbEntity
8
0
100
AcDbLine
10
-51.489892094968674
20
-38.576543227286265
30
0
11
-51.98989209496866
21
-38.076543227286251
31
0
0
LINE
5
163
100
AcDbEntity
8
0
100
AcDbLine
10
-51.389891950978964
20
-38.576543227286265
30
0
11
-51.489892094968674
21
-38.576543227286265
31
0
0
LINE
5
164
100
AcDbEntity
8
0
100
AcDbLine
10
-62.489892121148557
20
31.423456772713536
30
0
11
-61.989892121148564
21
31.923456772713543
31
0
0
LINE
5
165
100
AcDbEntity
8
0
100
AcDbLine
10
-51.98989209496866
20
-24.576543227286301
30
0
11
-51.98989209496866
21
-38.076543227286251
31
0
0
LINE
5
166
100
AcDbEntity
8
0
100
AcDbLine
10
-61.989892121148564
20
-24.576543227286301
30
0
11
-62.489892121148557
21
-24.076543227286294
31
0
0
ARC
5
167
100
AcDbEntity
8
0
100
AcDbCircle
10
-62.589892108058564
20
-21.076543227286297
30
0
40
3.0000000000000004
210
0
220
0
230
1
100
AcDbArc
50
90.000002999999865
51
269.99999700000012
0
LINE
5
168
100
AcDbEntity
8
0
100
AcDbLine
10
-62.489892121148557
20
-38.576543227286265
30
0
11
-61.989892121148564
21
-38.076543227286251
31
0
0
ARC
5
169
100
AcDbEntity
8
0
100
AcDbCircle
10
-51.389892108058596
20
48.923456772713479
30
0
40
3.0000000000000027
210
0
220
0
230
1
100
AcDbArc
50
-89.999997000000008
51
89.999997000000008
0
CIRCLE
5
170
100
AcDbEntity
8
0
100
AcDbCircle
10
131.51010789194083
20
-101.32654322728607
30
0
40
1.5000000000000002
210
0
220
0
230
1
0
LINE
5
171
100
AcDbEntity
8
0
100
AcDbLine
10
107.41010773486131
20
-3.576543227286356
30
0
11
107.51010787885104
21
-3.576543227286356
31
0
0
CIRCLE
5
172
100
AcDbEntity
8
0
100
AcDbCircle
10
26.510107891941178
20
3.6734567727135992
30
0
40
1.5000000000000002
210
0
220
0
230
1
0
ARC
5
173
100
AcDbEntity
8
0
100
AcDbCircle
10
118.61010789194094
20
-6.5765432272863533
30
0
40
3.0000000000000027
210
0
220
0
230
1
100
AcDbArc
50
-89.999997000000675
51
89.999996999999865
0
LINE
5
174
100
AcDbEntity
8
0
100
AcDbLine
10
107.51010787885104
20
-3.576543227286356
30
0
11
108.01010787885104
21
-3.0765432272863857
31
0
0
CIRCLE
5
175
100
AcDbEntity
8
0
100
AcDbCircle
10
131.51010789194083
20
3.6734567727135996
30
0
40
1.5000000000000002
210
0
220
0
230
1
0
CIRCLE
5
176
100
AcDbEntity
8
0
100
AcDbCircle
10
26.510107891941178
20
-101.32654322728607
30
0
40
1.5000000000000002
210
0
220
0
230
1
0
LINE
5
177
100
AcDbEntity
8
0
100
AcDbLine
10
118.01010790503074
20
10.423456772713585
30
0
11
118.01010790503074
21
-3.0765432272863844
31
0
0
LINE
5
178
100
AcDbEntity
8
0
100
AcDbLine
10
107.41010773486136
20
-9.5765432272863507
30
0
11
118.61010804902054
21
-9.5765432272863507
31
0
0
ARC
5
179
100
AcDbEntity
8
0
100
AcDbCircle
10
107.41010789194095
20
-6.5765432272863533
30
0
40
3.0000000000000018
210
0
220
0
230
1
100
AcDbArc
50
90.000003000000135
51
269.99999700000069
0
LINE
5
180
100
AcDbEntity
8
0
100
AcDbLine
10
118.61010804902058
20
-3.5765432272863551
30
0
11
118.51010790503075
21
-3.5765432272863551
31
0
0
LWPOLYLINE
5
181
100
AcDbEntity
8
0
100
AcDbPolyline
90
4
70
1
43
0.0
10
-96.232117812726997
20
110.80655959654797
10
-151.78979042310499
20
110.80655959654794
10
-151.78979042310499
20
146.80480872023799
10
-96.232117812726997
20
146.80480872023801
0
ENDSEC
0
SECTION
2
OBJECTS
0
DICTIONARY
5
C
100
AcDbDictionary
3
ACAD_GROUP
350
D
3
ACAD_MLINESTYLE
350
17
0
DICTIONARY
5
D
100
AcDbDictionary
0
DICTIONARY
5
1A
330
C
100
AcDbDictionary
0
DICTIONARY
5
17
100
AcDbDictionary
0
ENDSEC
0
EOF
